# xmcd
# 
# Track frame offsets:
#     150
#     14370
#     26553
#     41679
#     58043
#     76150
#     94387
#     110608
#     129834
#     147969
#     165095
#     182507
#     199472
#     214022
#     230370
#     246230
#     260644
#     275387
#     286622
# 
# Disc length: 4081
# 
# Revision: 4
# Processed by: cddbd v1.5.2PL0 Copyright (c) Steve Scherf et al.
# Submitted via: fre:ac v1.0.17
# 
DISCID=060fef13
DTITLE=Placebo - Once More With Feeling -Singles 1996-2004 CD1
DYEAR=2004
DGENRE=Rock
TTITLE0=36 Degrees
TTITLE1=Teenage Angst
TTITLE2=Nancy Boy
TTITLE3=Bruise Pristine
TTITLE4=Pure Morning
TTITLE5=You Don't Care About Us
TTITLE6=Every You Every Me
TTITLE7=Without You I'm Nothing
TTITLE8=Taste In Men
TTITLE9=Slave To The Wage
TTITLE10=Special K
TTITLE11=Black Eyed
TTITLE12=The Bitter End
TTITLE13=This Picture
TTITLE14=Special Needs
TTITLE15=English Summer Rain
TTITLE16=Protege Moi
TTITLE17=I Do
TTITLE18=Twenty Years
EXTD=
EXTT0=
EXTT1=
EXTT2=
EXTT3=
EXTT4=
EXTT5=
EXTT6=
EXTT7=
EXTT8=
EXTT9=
EXTT10=
EXTT11=
EXTT12=
EXTT13=
EXTT14=
EXTT15=
EXTT16=
EXTT17=
EXTT18=
PLAYORDER=
